<svg xmlns="http://www.w3.org/2000/svg">
  <symbol id="svg-icon-googleplay" viewBox="0 0 24 24">
    <path d="M12 0c-6.626 0-12 5.372-12 12 0 6.627 5.374 12 12 12 6.627 0 12-5.373 12-12 0-6.628-5.373-12-12-12zm-4.667 18.804l6.143-6.125 2.166 2.158-7.303 4.049c-.278.154-.618.152-.894-.006l-.112-.076zm5.524-6.743l-5.857 5.839v-11.679l5.857 5.84zm3.659-2.413l2.862 1.586c.281.156.455.449.455.766s-.174.61-.455.766l-2.94 1.63-2.342-2.335 2.42-2.413zm-9.248-4.395l.177-.133c.276-.158.616-.16.894-.006l7.381 4.092-2.244 2.237-6.208-6.19z"></path>
  </symbol>
  <symbol id="svg-icon-amazon" viewBox="0 0 24 24">
    <path d="M12 0c-6.627 0-12 5.373-12 12s5.373 12 12 12 12-5.373 12-12-5.373-12-12-12zm.919 7.433c-.224-.338-.656-.478-1.035-.478-.703 0-1.328.36-1.482 1.107-.032.167-.153.331-.321.339l-1.786-.194c-.151-.033-.319-.155-.275-.385.411-2.168 2.368-2.822 4.122-2.822.897 0 2.069.239 2.776.918.897.838.812 1.955.812 3.172v2.872c0 .864.359 1.243.695 1.708.119.167.144.368-.006.49-.377.316-1.046.897-1.413 1.224-.122.11-.304.113-.439.039-.614-.509-.722-.744-1.058-1.229-1.012 1.031-1.728 1.34-3.039 1.34-1.552 0-2.76-.957-2.76-2.873 0-1.497.811-2.513 1.966-3.012 1-.44 2.397-.52 3.466-.639v-.239c0-.439.035-.958-.223-1.338zm4.366 9.529c-1.43 1.33-3.503 2.038-5.289 2.038-2.502 0-4.755-1.166-6.46-3.107-.134-.152-.015-.36.146-.242 1.84 1.349 4.115 2.162 6.464 2.162 1.585 0 3.328-.413 4.931-1.272.242-.13.445.201.208.421zm.363.957c-.12.1-.234.047-.181-.086.176-.438.569-1.421.382-1.659-.186-.239-1.23-.113-1.7-.057-.142.017-.164-.107-.036-.197.833-.585 2.198-.416 2.357-.22.161.197-.041 1.566-.822 2.219zm-4.506-7.432v.399c0 .719.017 1.316-.345 1.955-.293.52-.759.839-1.275.839-.708 0-1.121-.539-1.121-1.337-.001-1.571 1.408-1.856 2.741-1.856z"></path>
  </symbol>
  <symbol id="svg-icon-youtube" viewBox="0 0 24 24">
    <path d="M12 0c-6.627 0-12 5.373-12 12s5.373 12 12 12 12-5.373 12-12-5.373-12-12-12zm4.441 16.892c-2.102.144-6.784.144-8.883 0-2.276-.156-2.541-1.27-2.558-4.892.017-3.629.285-4.736 2.558-4.892 2.099-.144 6.782-.144 8.883 0 2.277.156 2.541 1.27 2.559 4.892-.018 3.629-.285 4.736-2.559 4.892zm-6.441-7.234l4.917 2.338-4.917 2.346v-4.684z"></path>
  </symbol>
  <symbol id="svg-icon-facebook" viewBox="0 0 24 24">
    <path d="M12 0c-6.627 0-12 5.373-12 12s5.373 12 12 12 12-5.373 12-12-5.373-12-12-12zm3 8h-1.35c-.538 0-.65.221-.65.778v1.222h2l-.209 2h-1.791v7h-3v-7h-2v-2h2v-2.308c0-1.769.931-2.692 3.029-2.692h1.971v3z"></path>
  </symbol>
  <symbol id="svg-icon-twitter" viewBox="0 0 24 24">
    <path d="M12 0c-6.627 0-12 5.373-12 12s5.373 12 12 12 12-5.373 12-12-5.373-12-12-12zm6.066 9.645c.183 4.04-2.83 8.544-8.164 8.544-1.622 0-3.131-.476-4.402-1.291 1.524.18 3.045-.244 4.252-1.189-1.256-.023-2.317-.854-2.684-1.995.451.086.895.061 1.298-.049-1.381-.278-2.335-1.522-2.304-2.853.388.215.83.344 1.301.359-1.279-.855-1.641-2.544-.889-3.835 1.416 1.738 3.533 2.881 5.92 3.001-.419-1.796.944-3.527 2.799-3.527.825 0 1.572.349 2.096.907.654-.128 1.27-.368 1.824-.697-.215.671-.67 1.233-1.263 1.589.581-.07 1.135-.224 1.649-.453-.384.578-.87 1.084-1.433 1.489z"></path>
  </symbol>
  <symbol id="svg-icon-github" viewBox="0 0 24 24">
    <path d="M12 0c-6.627 0-12 5.373-12 12s5.373 12 12 12 12-5.373 12-12-5.373-12-12-12zm2.218 18.616c-.354.069-.468-.149-.468-.336v-1.921c0-.653-.229-1.079-.481-1.296 1.56-.173 3.198-.765 3.198-3.454 0-.765-.273-1.389-.721-1.879.072-.177.312-.889-.069-1.853 0 0-.587-.188-1.923.717-.561-.154-1.159-.231-1.754-.234-.595.003-1.193.08-1.753.235-1.337-.905-1.925-.717-1.925-.717-.379.964-.14 1.676-.067 1.852-.448.49-.722 1.114-.722 1.879 0 2.682 1.634 3.282 3.189 3.459-.2.175-.381.483-.444.936-.4.179-1.413.488-2.037-.582 0 0-.37-.672-1.073-.722 0 0-.683-.009-.048.426 0 0 .46.215.777 1.024 0 0 .405 1.25 2.353.826v1.303c0 .185-.113.402-.462.337-2.782-.925-4.788-3.549-4.788-6.641 0-3.867 3.135-7 7-7s7 3.133 7 7c0 3.091-2.003 5.715-4.782 6.641z"></path>
  </symbol>
  <symbol id="svg-icon-email" viewBox="0 0 24 24">
    <path d="M12 .02c-6.627 0-12 5.373-12 12s5.373 12 12 12 12-5.373 12-12-5.373-12-12-12zm6.99 6.98l-6.99 5.666-6.991-5.666h13.981zm.01 10h-14v-8.505l7 5.673 7-5.672v8.504z"></path>
  </symbol>
</svg>
